<svg xmlns="http://www.w3.org/2000/svg" viewBox="0 0 744.09 1052.4" version="1.0">
    <g fill-rule="evenodd">
        <path d="M72.808 479.73c-14.579 18.59 52.222 19.99 47.822 32.38-4.41 12.39-80.03 35.76-89.764 48.66-6.095 32.13 103.63 8.79 52.471 44.92C11.84 622.8 3.549 675.37 97.981 653.3c94.429-22.07 193.04-45.12 149.5-19.57s-41.94 34.84-31.01 42.07c31.71 17.5 259.58 5.44 288.6-12.8 29.02-18.25-47.3-18.02-43.76-50.72s68.41-26.82 108.94-33.01c129.61-10.11 112.51-51.17 79.8-51.08-32.71.1-191.54-13.37-98.27-34.54 109.05 3.31 323.34-56.91-18.29-52.28-341.62 4.64-398.6 4.24-460.68 38.36z"/>
        <path d="M74.808 483.73c-14.579 18.59 52.222 19.99 47.822 32.38-4.41 12.39-80.03 35.76-89.764 48.66-6.095 32.13 103.63 8.79 52.471 44.92C13.84 626.8 5.549 679.37 99.981 657.3c94.429-22.07 193.04-45.12 149.5-19.57s-41.94 34.84-31.01 42.07c31.71 17.5 259.58 5.44 288.6-12.8 29.02-18.25-47.3-18.02-43.76-50.72s68.41-26.82 108.94-33.01c129.61-10.11 112.51-51.17 79.8-51.08-32.71.1-191.54-13.37-98.27-34.54 109.05 3.31 323.34-56.91-18.29-52.28-341.62 4.64-398.6 4.24-460.68 38.36z"/>
        <path d="M76.981 480.82c-14.377 18.34 51.499 19.73 47.159 31.96-4.35 12.22-78.921 35.29-88.52 48.01-6.011 31.72 102.19 8.68 51.743 44.34-70.505 16.88-78.681 68.76 14.437 46.98 93.13-21.78 190.37-44.53 147.43-19.31-42.93 25.21-41.36 34.38-30.58 41.52 31.27 17.27 255.98 5.36 284.6-12.64 28.62-18.01-46.65-17.78-43.16-50.05s67.47-26.47 107.43-32.57c127.82-9.98 110.96-50.51 78.7-50.41-32.26.09-188.89-13.2-96.91-34.09 107.54 3.27 318.86-56.17-18.03-51.59-336.89 4.57-393.08 4.18-454.3 37.85z" fill="#4affff"/>
        <path d="M89.773 484.15c23.097-14.21 49.737-17.76 56.847-19.54 7.1-1.77 65.72-10.65 35.53 0-30.2 10.66-92.377 19.54-92.377 19.54z" fill="azure"/>
        <path d="M178.14 517.56c-7.42-18.33-22.26-190.62-7.42-212.61 14.84-22 163.23-40.33 189.19-18.33 25.97 21.99 103.87 51.32 107.58 69.65s22.26 168.62 3.71 190.62c-18.55 21.99-170.64 54.98-189.19 47.65s-103.87-76.98-103.87-76.98z"/>
        <path d="M183 515.75c-7.16-17.92-21.5-186.38-7.16-207.88 14.33-21.5 157.7-39.42 182.78-17.92 25.09 21.5 100.36 50.18 103.94 68.1 3.59 17.92 21.51 164.86 3.59 186.37-17.92 21.5-164.87 53.76-182.79 46.59S183 515.75 183 515.75z" fill="#5bffff"/>
        <path d="M290.53 537.25c-14.34-17.92-17.92-111.11-7.17-132.61s107.52-21.5 111.11-7.17c3.58 14.34 14.33 17.92-14.34 25.09s-60.93 0-71.68 14.34c-10.75 14.33-10.75 118.27-10.75 118.27l-7.17-17.92zM189.58 438.7c-7.19-19.4-8.99-87.8-3.6-98.28 5.4-10.49 53.97 33.77 55.77 45.68s7.19 19.4-7.2 11.42-30.58-27.87-35.97-22.52c-5.4 5.35-5.4 79.82-5.4 79.82l-3.6-16.12zM642.77 554.42c-33.89 4.75-141.22 19.17-161.73 28.3-20.5 9.14-43.21 8.68-41.52 2.59 1.69-6.1 166.51-55.03 189.54-44.93 23.04 10.11 13.71 14.04 13.71 14.04z" fill="azure"/>
        <path d="M190.17 316.72s31.98 17.77 46.19 35.53c14.21 17.77 19.54 21.32 35.53 23.09 15.98 1.78 115.46-12.43 126.12-17.76s-90.6 14.21-113.69 10.66-31.97-15.99-53.29-28.42c-21.32-12.44-40.86-23.1-40.86-23.1z" fill="#0cd9eb"/>
    </g>
</svg>
